<svg width="48" height="48" viewBox="0 0 48 48" fill="none" xmlns="http://www.w3.org/2000/svg">
<rect width="48" height="48" rx="7" fill="#013CD2"/>
<path d="M6.36336 34.1095L8.50925 31.2467C9.35568 30.7638 11.0629 29.7497 11.5493 28.7287C12.1573 27.4525 12.9083 26.2798 13.8024 25.5899C12.9799 25.3945 11.8354 25.0036 10.6551 24.4862C9.95078 24.1774 8.33042 23.072 8.33042 21.3819C8.33042 19.6918 9.18878 18.6915 10.4406 17.8292C11.6923 16.9669 13.6594 16.0701 14.017 14.173C14.0743 14.035 14.1601 14.1155 14.1959 14.173C14.3747 14.6559 14.1172 16.0011 11.6566 17.5188C10.6764 18.1233 9.9299 18.5268 9.4749 19.0019C8.5021 20.0177 8.58078 20.8679 8.58078 21.2439C8.58078 22.4151 9.36761 23.3824 10.4406 24.1413C11.2989 24.7483 13.1825 25.2569 14.017 25.4352C15.0226 24.7517 17.0888 23.8252 18.4161 23.5894C19.7752 23.3479 22.3503 22.7271 24.4961 22.1062C26.642 21.4853 28.0011 20.899 29.6821 19.4503C30.9289 18.3758 31.1367 17.6506 31.7206 16.7254C32.2214 15.9321 32.5075 15.5872 33.2585 14.8973C33.4731 13.8971 34.6891 12 35.5475 12C36.0482 12 36.0482 14.104 36.4058 14.2764C37.114 14.6179 38.051 14.6559 39.1597 15.7596C40.2685 16.8634 40.0024 16.9968 41.2341 17.6567C41.8779 18.0016 41.3414 20.2091 39.0167 20.5885C38.2686 20.7106 36.8708 20.899 36.0124 21.8992C35.1541 22.8995 35.2256 23.8653 35.3329 24.1757C35.4402 24.4862 35.9051 24.6931 37.0138 24.7621C38.1226 24.8311 40.1819 24.876 41.2341 25.245C42.0209 25.5209 42.4525 25.7343 42.9151 26.3143C43.2727 26.7627 42.4143 27.9354 41.9494 27.7974C41.4845 27.6594 40.3042 27.1766 38.6948 27.1766C37.4788 27.1766 36.2185 27.6303 35.1183 27.7629C32.5432 28.0734 31.3988 27.3835 31.3988 27.3835C25.3903 30.5913 19.8872 30.5913 19.8872 30.5913C18.9546 31.5539 17.7833 32.5264 16.449 32.8678C14.6966 33.3162 14.5535 33.5576 10.4763 33.4886C10.3598 33.4867 8.97419 34.3854 8.54501 35.0753C8.41624 35.2823 8.50925 35.7031 8.22313 35.8686C7.86548 36.0756 7.18595 36.0756 6.36336 35.5927C5.70528 35.2064 6.08916 34.443 6.36336 34.1095Z" fill="white"/>
<path d="M13.8024 25.5899C12.9083 26.2798 12.1573 27.4525 11.5493 28.7287C11.0629 29.7497 9.35568 30.7638 8.50925 31.2467L6.36336 34.1095C6.08916 34.443 5.70528 35.2064 6.36336 35.5927C7.18595 36.0756 7.86548 36.0756 8.22313 35.8686C8.50925 35.7031 8.41624 35.2823 8.54501 35.0753C8.97419 34.3854 10.3598 33.4867 10.4763 33.4886C14.5535 33.5576 14.6966 33.3162 16.449 32.8678C18.5234 32.337 20.2038 30.2809 21.2058 29.1081C20.9152 29.4875 19.8872 30.5913 19.8872 30.5913C19.8872 30.5913 25.3903 30.5913 31.3988 27.3835C31.3988 27.3835 32.5432 28.0734 35.1183 27.7629C36.2185 27.6303 37.4788 27.1766 38.6948 27.1766C40.3042 27.1766 41.4845 27.6594 41.9494 27.7974C42.4143 27.9354 43.2727 26.7627 42.9151 26.3143C42.4525 25.7343 42.0209 25.5209 41.2341 25.245C40.1819 24.876 38.1226 24.8311 37.0139 24.7621C35.9051 24.6931 35.4402 24.4862 35.3329 24.1757C35.2256 23.8653 35.1541 22.8995 36.0124 21.8992C36.8708 20.899 38.2686 20.7106 39.0167 20.5885C41.3414 20.2091 41.8779 18.0016 41.2341 17.6567C40.0024 16.9968 40.2685 16.8634 39.1597 15.7596C38.051 14.6559 37.114 14.6179 36.4058 14.2764C36.0482 14.104 36.0482 12 35.5475 12C34.6891 12 33.4731 13.8971 33.2585 14.8973C32.5075 15.5872 32.2214 15.9321 31.7206 16.7254C31.1367 17.6506 30.9289 18.3758 29.6821 19.4503C28.0011 20.899 26.642 21.4853 24.4961 22.1062C22.3503 22.7271 19.7752 23.3479 18.4161 23.5894C17.0888 23.8252 15.0226 24.7517 14.017 25.4352M13.8024 25.5899C12.9799 25.3945 11.8354 25.0036 10.6551 24.4862C9.95078 24.1774 8.33042 23.072 8.33042 21.3819C8.33042 19.6918 9.18878 18.6915 10.4406 17.8292C11.6923 16.9669 13.6594 16.0701 14.017 14.173C14.0743 14.035 14.1601 14.1155 14.1959 14.173C14.3747 14.6559 14.1172 16.0011 11.6566 17.5188C10.6764 18.1233 9.9299 18.5268 9.4749 19.0019C8.5021 20.0177 8.58078 20.8679 8.58078 21.2439C8.58078 22.4151 9.36761 23.3824 10.4406 24.1413C11.2989 24.7483 13.1825 25.2569 14.017 25.4352M13.8024 25.5899C13.867 25.5401 13.9388 25.4884 14.017 25.4352" stroke="white" stroke-width="0.5" stroke-linecap="round"/>
</svg>
