<svg width="15" height="15" viewBox="0 0 15 15" fill="none" xmlns="http://www.w3.org/2000/svg">
<path d="M12.9563 1.45676H12.1816V0H10.6323V1.45676H4.43489V0H2.88555V1.45676H2.11087C1.25098 1.45676 0.56927 2.1123 0.56927 2.91352L0.561523 13.1108C0.561523 13.912 1.25098 14.5676 2.11087 14.5676H12.9563C13.8085 14.5676 14.5057 13.912 14.5057 13.1108V2.91352C14.5057 2.1123 13.8085 1.45676 12.9563 1.45676ZM12.9563 13.1108H2.11087V5.82703H12.9563V13.1108ZM5.20957 8.74055H3.66022V7.28379H5.20957V8.74055ZM8.30827 8.74055H6.75892V7.28379H8.30827V8.74055ZM11.407 8.74055H9.85761V7.28379H11.407V8.74055ZM5.20957 11.6541H3.66022V10.1973H5.20957V11.6541ZM8.30827 11.6541H6.75892V10.1973H8.30827V11.6541ZM11.407 11.6541H9.85761V10.1973H11.407V11.6541Z" fill="#6C6C6C"/>
</svg>
