<svg width="14" height="17" viewBox="0 0 14 17" fill="none" xmlns="http://www.w3.org/2000/svg">
<path d="M7 8.66242C7.48125 8.66242 7.89337 8.49264 8.23637 8.15307C8.57879 7.81408 8.75 7.40637 8.75 6.92994C8.75 6.4535 8.57879 6.0455 8.23637 5.70594C7.89337 5.36695 7.48125 5.19745 7 5.19745C6.51875 5.19745 6.10692 5.36695 5.7645 5.70594C5.4215 6.0455 5.25 6.4535 5.25 6.92994C5.25 7.40637 5.4215 7.81408 5.7645 8.15307C6.10692 8.49264 6.51875 8.66242 7 8.66242ZM7 17C6.88333 17 6.76667 16.9783 6.65 16.935C6.53333 16.8917 6.43125 16.834 6.34375 16.7618C4.21458 14.8994 2.625 13.1706 1.575 11.5756C0.525 9.97997 0 8.48917 0 7.10318C0 4.93758 0.703792 3.21231 2.11138 1.92739C3.51838 0.642463 5.14792 0 7 0C8.85208 0 10.4816 0.642463 11.8886 1.92739C13.2962 3.21231 14 4.93758 14 7.10318C14 8.48917 13.475 9.97997 12.425 11.5756C11.375 13.1706 9.78542 14.8994 7.65625 16.7618C7.56875 16.834 7.46667 16.8917 7.35 16.935C7.23333 16.9783 7.11667 17 7 17Z" fill="#6C6C6C"/>
</svg>
