<svg width="26" height="27" viewBox="0 0 26 27" fill="none" xmlns="http://www.w3.org/2000/svg">
<path d="M19.1025 8.00488C19.6067 8.05621 20 8.48232 20 9H20.5C23.5376 9 26 11.4624 26 14.5C26 17.5376 23.5376 20 20.5 20H19.9355C19.46 23.8124 16.3043 26.7917 12.4121 26.9893L12 27H8L7.58789 26.9893C3.49764 26.7817 0.218304 23.5024 0.0107422 19.4121L0 19V9C0 8.44772 0.447715 8 1 8H19L19.1025 8.00488ZM2 19C2 22.3137 4.68629 25 8 25H12C15.3137 25 18 22.3137 18 19V10H2V19ZM20 18H20.5C22.433 18 24 16.433 24 14.5C24 12.567 22.433 11 20.5 11H20V18ZM5 0C5.55228 0 6 0.447715 6 1V5C6 5.55228 5.55228 6 5 6C4.44772 6 4 5.55228 4 5V1C4 0.447715 4.44772 0 5 0ZM10 0C10.5523 0 11 0.447715 11 1V5C11 5.55228 10.5523 6 10 6C9.44772 6 9 5.55228 9 5V1C9 0.447715 9.44772 0 10 0ZM15 0C15.5523 0 16 0.447715 16 1V5C16 5.55228 15.5523 6 15 6C14.4477 6 14 5.55228 14 5V1C14 0.447715 14.4477 0 15 0Z" fill="black"/>
</svg>
