<svg width="14" height="15" viewBox="0 0 14 15" fill="none" xmlns="http://www.w3.org/2000/svg">
<path d="M6.3 6.75H10.5C10.6983 6.75 10.8645 6.678 10.9984 6.534C11.1328 6.3905 11.2 6.2125 11.2 6C11.2 5.7875 11.1328 5.60925 10.9984 5.46525C10.8645 5.32175 10.6983 5.25 10.5 5.25H6.3C6.10167 5.25 5.93553 5.32175 5.8016 5.46525C5.6672 5.60925 5.6 5.7875 5.6 6C5.6 6.2125 5.6672 6.3905 5.8016 6.534C5.93553 6.678 6.10167 6.75 6.3 6.75ZM6.3 9H7.7C7.89833 9 8.0647 8.928 8.1991 8.784C8.33303 8.6405 8.4 8.4625 8.4 8.25C8.4 8.0375 8.33303 7.85925 8.1991 7.71525C8.0647 7.57175 7.89833 7.5 7.7 7.5H6.3C6.10167 7.5 5.93553 7.57175 5.8016 7.71525C5.6672 7.85925 5.6 8.0375 5.6 8.25C5.6 8.4625 5.6672 8.6405 5.8016 8.784C5.93553 8.928 6.10167 9 6.3 9ZM6.3 4.5H10.5C10.6983 4.5 10.8645 4.42825 10.9984 4.28475C11.1328 4.14075 11.2 3.9625 11.2 3.75C11.2 3.5375 11.1328 3.35925 10.9984 3.21525C10.8645 3.07175 10.6983 3 10.5 3H6.3C6.10167 3 5.93553 3.07175 5.8016 3.21525C5.6672 3.35925 5.6 3.5375 5.6 3.75C5.6 3.9625 5.6672 4.14075 5.8016 4.28475C5.93553 4.42825 6.10167 4.5 6.3 4.5ZM4.2 12C3.815 12 3.48553 11.8533 3.2116 11.5597C2.9372 11.2657 2.8 10.9125 2.8 10.5V1.5C2.8 1.0875 2.9372 0.73425 3.2116 0.44025C3.48553 0.14675 3.815 0 4.2 0H12.6C12.985 0 13.3147 0.14675 13.5891 0.44025C13.863 0.73425 14 1.0875 14 1.5V10.5C14 10.9125 13.863 11.2657 13.5891 11.5597C13.3147 11.8533 12.985 12 12.6 12H4.2ZM1.4 15C1.015 15 0.685533 14.8533 0.4116 14.5597C0.1372 14.2657 0 13.9125 0 13.5V3.75C0 3.5375 0.0672001 3.35925 0.2016 3.21525C0.335533 3.07175 0.501667 3 0.7 3C0.898333 3 1.0647 3.07175 1.1991 3.21525C1.33303 3.35925 1.4 3.5375 1.4 3.75V13.5H10.5C10.6983 13.5 10.8645 13.572 10.9984 13.716C11.1328 13.8595 11.2 14.0375 11.2 14.25C11.2 14.4625 11.1328 14.6405 10.9984 14.784C10.8645 14.928 10.6983 15 10.5 15H1.4Z" fill="#6C6C6C"/>
</svg>
