<svg width="121" height="29" viewBox="0 0 121 29" fill="none" xmlns="http://www.w3.org/2000/svg">
<path d="M45.15 25V6.375H50.5C52.4 6.375 54.05 6.7 55.45 7.35C56.8667 7.98333 57.9667 8.975 58.75 10.325C59.5333 11.675 59.925 13.4333 59.925 15.6C59.925 17.75 59.5333 19.525 58.75 20.925C57.9833 22.3083 56.9083 23.3333 55.525 24C54.1583 24.6667 52.5667 25 50.75 25H45.15ZM49.625 21.4H50.225C51.225 21.4 52.1083 21.225 52.875 20.875C53.6583 20.525 54.2667 19.925 54.7 19.075C55.1333 18.225 55.35 17.0667 55.35 15.6C55.35 14.1167 55.1333 12.9667 54.7 12.15C54.2667 11.3333 53.6583 10.7667 52.875 10.45C52.1083 10.1167 51.225 9.95 50.225 9.95H49.625V21.4ZM63.1373 25V6.375H69.6373C70.9206 6.375 72.0873 6.51667 73.1373 6.8C74.1873 7.06667 75.0206 7.53333 75.6373 8.2C76.254 8.86667 76.5623 9.8 76.5623 11C76.5623 11.55 76.4623 12.1 76.2623 12.65C76.0623 13.1833 75.779 13.6667 75.4123 14.1C75.0623 14.5167 74.6373 14.825 74.1373 15.025V15.125C75.0706 15.375 75.854 15.8583 76.4873 16.575C77.1206 17.2917 77.4373 18.2667 77.4373 19.5C77.4373 20.7667 77.1123 21.8083 76.4623 22.625C75.8123 23.425 74.9373 24.025 73.8373 24.425C72.7373 24.8083 71.5123 25 70.1623 25H63.1373ZM67.6123 13.775H69.4623C70.4123 13.775 71.104 13.5833 71.5373 13.2C71.9873 12.8167 72.2123 12.3083 72.2123 11.675C72.2123 11.0083 71.9873 10.5333 71.5373 10.25C71.0873 9.95 70.3956 9.8 69.4623 9.8H67.6123V13.775ZM67.6123 21.575H69.8373C70.9206 21.575 71.729 21.3833 72.2623 21C72.8123 20.6 73.0873 20 73.0873 19.2C73.0873 18.4333 72.8123 17.8833 72.2623 17.55C71.729 17.2167 70.9206 17.05 69.8373 17.05H67.6123V21.575ZM83.5201 25.35C82.6535 25.35 81.9035 25.1583 81.2701 24.775C80.6368 24.375 80.1451 23.85 79.7951 23.2C79.4618 22.5333 79.2951 21.8083 79.2951 21.025C79.2951 19.525 79.9201 18.3583 81.1701 17.525C82.4201 16.675 84.4285 16.1 87.1951 15.8C87.1618 15.4167 87.0701 15.0917 86.9201 14.825C86.7701 14.5417 86.5368 14.3333 86.2201 14.2C85.9201 14.05 85.5285 13.975 85.0451 13.975C84.4785 13.975 83.8951 14.0833 83.2951 14.3C82.6951 14.5167 82.0368 14.825 81.3201 15.225L79.7701 12.3C80.4035 11.9167 81.0451 11.5917 81.6951 11.325C82.3618 11.0417 83.0451 10.825 83.7451 10.675C84.4451 10.5083 85.1618 10.425 85.8951 10.425C87.1285 10.425 88.1701 10.6583 89.0201 11.125C89.8701 11.5917 90.5201 12.3083 90.9701 13.275C91.4201 14.225 91.6451 15.4417 91.6451 16.925V25H88.0201L87.7201 23.575H87.5951C87.0118 24.0917 86.3785 24.5167 85.6951 24.85C85.0285 25.1833 84.3035 25.35 83.5201 25.35ZM85.0451 21.9C85.4951 21.9 85.8868 21.8 86.2201 21.6C86.5535 21.4 86.8785 21.125 87.1951 20.775V18.5C86.2785 18.6167 85.5451 18.7833 84.9951 19C84.4618 19.2167 84.0785 19.4667 83.8451 19.75C83.6285 20.0333 83.5201 20.3417 83.5201 20.675C83.5201 21.0917 83.6535 21.4 83.9201 21.6C84.2035 21.8 84.5785 21.9 85.0451 21.9ZM99.0813 25.35C98.1646 25.35 97.2063 25.1667 96.2063 24.8C95.2063 24.4333 94.3396 23.95 93.6063 23.35L95.5813 20.575C96.2313 21.0583 96.8479 21.4333 97.4313 21.7C98.0313 21.95 98.6146 22.075 99.1813 22.075C99.7646 22.075 100.19 21.975 100.456 21.775C100.723 21.575 100.856 21.3 100.856 20.95C100.856 20.6667 100.723 20.425 100.456 20.225C100.19 20.025 99.8396 19.8417 99.4063 19.675C98.9729 19.4917 98.5146 19.3083 98.0313 19.125C97.4646 18.8917 96.8979 18.6 96.3312 18.25C95.7813 17.9 95.3229 17.4583 94.9563 16.925C94.5896 16.375 94.4063 15.7083 94.4063 14.925C94.4063 14.025 94.6313 13.2417 95.0813 12.575C95.5479 11.8917 96.1896 11.3667 97.0063 11C97.8396 10.6167 98.8063 10.425 99.9063 10.425C101.023 10.425 101.998 10.6167 102.831 11C103.665 11.3667 104.381 11.7833 104.981 12.25L103.006 14.9C102.49 14.5333 101.981 14.2417 101.481 14.025C100.998 13.8083 100.523 13.7 100.056 13.7C99.5396 13.7 99.1563 13.7917 98.9063 13.975C98.6729 14.1417 98.5563 14.3917 98.5563 14.725C98.5563 15.0083 98.6729 15.2417 98.9063 15.425C99.1563 15.6083 99.4896 15.775 99.9063 15.925C100.323 16.075 100.773 16.2417 101.256 16.425C101.706 16.5917 102.148 16.7917 102.581 17.025C103.031 17.2417 103.44 17.5167 103.806 17.85C104.173 18.1833 104.465 18.5833 104.681 19.05C104.898 19.5 105.006 20.05 105.006 20.7C105.006 21.5667 104.781 22.3583 104.331 23.075C103.881 23.775 103.215 24.3333 102.331 24.75C101.465 25.15 100.381 25.35 99.0813 25.35ZM113.775 25.35C112.409 25.35 111.175 25.0583 110.075 24.475C108.992 23.875 108.125 23.0167 107.475 21.9C106.842 20.7833 106.525 19.4417 106.525 17.875C106.525 16.725 106.709 15.6917 107.075 14.775C107.459 13.8583 107.967 13.075 108.6 12.425C109.25 11.775 109.975 11.2833 110.775 10.95C111.592 10.6 112.425 10.425 113.275 10.425C114.642 10.425 115.775 10.725 116.675 11.325C117.575 11.925 118.25 12.7417 118.7 13.775C119.15 14.8083 119.375 15.975 119.375 17.275C119.375 17.675 119.35 18.05 119.3 18.4C119.267 18.75 119.225 19.0167 119.175 19.2H110.825C110.959 19.85 111.192 20.375 111.525 20.775C111.859 21.175 112.267 21.475 112.75 21.675C113.234 21.8583 113.775 21.95 114.375 21.95C114.892 21.95 115.392 21.875 115.875 21.725C116.359 21.575 116.859 21.35 117.375 21.05L118.85 23.725C118.117 24.2417 117.292 24.6417 116.375 24.925C115.475 25.2083 114.609 25.35 113.775 25.35ZM110.75 16.275H115.6C115.6 15.575 115.425 14.9917 115.075 14.525C114.742 14.0583 114.167 13.825 113.35 13.825C112.95 13.825 112.567 13.9167 112.2 14.1C111.85 14.2667 111.542 14.5333 111.275 14.9C111.025 15.25 110.85 15.7083 110.75 16.275Z" fill="white"/>
<path d="M1.34372 25.1095L3.37361 22.2467C4.1743 21.7638 5.78919 20.7497 6.2493 19.7287C6.82444 18.4525 7.5349 17.2798 8.38069 16.5899C7.60257 16.3945 6.51996 16.0036 5.40351 15.4862C4.73723 15.1774 3.20446 14.072 3.20446 12.3819C3.20446 10.6918 4.01641 9.6915 5.20052 8.82919C6.38463 7.96688 8.24537 7.07009 8.58368 5.17301C8.63781 5.03504 8.71901 5.11552 8.75285 5.17301C8.922 5.6559 8.67842 7.0011 6.3508 8.51876C5.42362 9.1233 4.71748 9.52683 4.28707 10.0019C3.36685 11.0177 3.44128 11.8679 3.44128 12.2439C3.44128 13.4151 4.18558 14.3824 5.20052 15.1413C6.01248 15.7483 7.79428 16.2569 8.58369 16.4352C9.53486 15.7517 11.4894 14.8252 12.745 14.5894C14.0306 14.3479 16.4665 13.7271 18.4964 13.1062C20.5263 12.4853 21.8119 11.899 23.4019 10.4503C24.5814 9.37577 24.778 8.6506 25.3303 7.72544C25.804 6.93212 26.0746 6.58719 26.7851 5.89735C26.9881 4.89707 28.1384 2.99999 28.9503 3C29.424 3.00001 29.424 5.10398 29.7623 5.27645C30.4321 5.6179 31.3185 5.65587 32.3673 6.75962C33.4161 7.86337 33.1645 7.99679 34.3296 8.65669C34.9385 9.00162 34.431 11.2091 32.232 11.5885C31.5244 11.7106 30.2021 11.899 29.3901 12.8992C28.5782 13.8995 28.6458 14.8653 28.7473 15.1757C28.8488 15.4862 29.2886 15.6931 30.3374 15.7621C31.3862 15.8311 33.3342 15.876 34.3296 16.245C35.0739 16.5209 35.4821 16.7343 35.9196 17.3143C36.258 17.7627 35.446 18.9354 35.0062 18.7974C34.5664 18.6594 33.4499 18.1766 31.9275 18.1766C30.7772 18.1766 29.585 18.6303 28.5443 18.7629C26.1085 19.0734 25.0259 18.3835 25.0259 18.3835C19.3421 21.5913 14.1365 21.5913 14.1365 21.5913C14.1365 21.5913 14.1365 21.5913 14.1365 21.5913C13.2544 22.5539 12.1464 23.5264 10.8842 23.8678C9.22649 24.3162 9.09116 24.5576 5.23435 24.4886C5.12416 24.4867 3.81342 25.3854 3.40744 26.0753C3.28563 26.2823 3.37362 26.7031 3.10296 26.8686C2.76464 27.0756 2.12184 27.0756 1.34372 26.5927C0.721214 26.2064 1.08434 25.443 1.34372 25.1095Z" fill="white"/>
<path d="M8.38069 16.5899C7.5349 17.2798 6.82444 18.4525 6.2493 19.7287C5.78919 20.7497 4.1743 21.7638 3.37361 22.2467L1.34372 25.1095C1.08434 25.443 0.721214 26.2064 1.34372 26.5927C2.12184 27.0756 2.76464 27.0756 3.10296 26.8686C3.37362 26.7031 3.28563 26.2823 3.40744 26.0753C3.81342 25.3854 5.12416 24.4867 5.23435 24.4886C9.09116 24.5576 9.22648 24.3162 10.8842 23.8678C12.8465 23.337 14.436 21.2809 15.3838 20.1081C15.109 20.4875 14.1365 21.5913 14.1365 21.5913C14.1365 21.5913 19.3421 21.5913 25.0259 18.3835C25.0259 18.3835 26.1085 19.0734 28.5443 18.7629C29.585 18.6303 30.7772 18.1766 31.9275 18.1766C33.4499 18.1766 34.5664 18.6594 35.0062 18.7974C35.446 18.9354 36.258 17.7627 35.9196 17.3143C35.4821 16.7343 35.0739 16.5209 34.3296 16.245C33.3342 15.876 31.3862 15.8311 30.3374 15.7621C29.2886 15.6931 28.8488 15.4862 28.7473 15.1757C28.6458 14.8653 28.5782 13.8995 29.3901 12.8992C30.2021 11.899 31.5244 11.7106 32.232 11.5885C34.4311 11.2091 34.9385 9.00162 34.3296 8.65669C33.1645 7.99679 33.4161 7.86337 32.3673 6.75962C31.3185 5.65587 30.4321 5.6179 29.7623 5.27645C29.424 5.10398 29.424 3.00001 28.9503 3C28.1384 2.99999 26.9881 4.89707 26.7851 5.89735C26.0746 6.58719 25.804 6.93212 25.3303 7.72544C24.778 8.6506 24.5814 9.37577 23.4019 10.4503C21.8119 11.899 20.5263 12.4853 18.4964 13.1062C16.4665 13.7271 14.0306 14.3479 12.745 14.5894C11.4894 14.8252 9.53486 15.7517 8.58369 16.4352M8.38069 16.5899C7.60257 16.3945 6.51996 16.0036 5.40351 15.4862C4.73723 15.1774 3.20446 14.072 3.20446 12.3819C3.20446 10.6918 4.01641 9.6915 5.20052 8.82919C6.38463 7.96688 8.24537 7.07009 8.58368 5.17301C8.63781 5.03504 8.71901 5.11552 8.75285 5.17301C8.922 5.6559 8.67842 7.0011 6.3508 8.51876C5.42362 9.1233 4.71748 9.52683 4.28707 10.0019C3.36685 11.0177 3.44128 11.8679 3.44128 12.2439C3.44128 13.4151 4.18558 14.3824 5.20052 15.1413C6.01248 15.7483 7.79428 16.2569 8.58369 16.4352M8.38069 16.5899C8.44175 16.5401 8.50968 16.4884 8.58369 16.4352" stroke="white" stroke-width="0.5" stroke-linecap="round"/>
</svg>
