<svg width="25" height="29" viewBox="0 0 25 29" fill="none" xmlns="http://www.w3.org/2000/svg">
<path d="M11.5 0C12.0523 6.07809e-07 12.5 0.447716 12.5 1V10.5C12.5 12.7091 10.7091 14.5 8.5 14.5H7.5V28C7.5 28.5523 7.05228 29 6.5 29C5.94772 29 5.5 28.5523 5.5 28V14.5H4C1.79086 14.5 3.43653e-07 12.7091 0 10.5V1C2.7129e-07 0.447716 0.447715 4.16185e-08 1 0C1.55228 1.03312e-05 2 0.447722 2 1V10.5C2 11.6046 2.89543 12.5 4 12.5H5.5V1C5.5 0.447715 5.94772 -5.17541e-10 6.5 0C7.05228 2.41411e-08 7.5 0.447715 7.5 1V12.5H8.5C9.60457 12.5 10.5 11.6046 10.5 10.5V1C10.5 0.447715 10.9477 7.14661e-08 11.5 0ZM22.5078 0.358398C23.8408 -0.0791625 25 1.00215 25 2.21973V28L24.9951 28.1025C24.9438 28.6067 24.5177 29 24 29C23.4823 29 23.0562 28.6067 23.0049 28.1025L23 28V18.5H19C17.8954 18.5 17 17.6046 17 16.5V7.5C17 4.35831 18.9043 1.54147 22.5078 0.358398ZM23 2.30469C20.2685 3.25227 19 5.29932 19 7.5V16.5H23V2.30469Z" fill="black"/>
</svg>
