<svg width="22" height="27" viewBox="0 0 22 27" fill="none" xmlns="http://www.w3.org/2000/svg">
<path d="M19 0C20.6569 0 22 1.34315 22 3V19C22 20.6051 20.7394 21.9158 19.1543 21.9961L19 22H17.8232L19.7012 24.9482C19.9977 25.414 19.8602 26.0324 19.3945 26.3291C18.9288 26.6256 18.3103 26.4882 18.0137 26.0225L15.4512 22H6.40625L3.84375 26.0225C3.54707 26.4882 2.92865 26.6256 2.46289 26.3291C1.99719 26.0324 1.85975 25.414 2.15625 24.9482L4.03418 22H3L2.8457 21.9961C1.31166 21.9184 0.0816253 20.6883 0.00390625 19.1543L0 19V3C0 1.34315 1.34315 4.83192e-08 3 0H19ZM2 19C2 19.5523 2.44772 20 3 20H19C19.5523 20 20 19.5523 20 19V12H2V19ZM6.5 17H4.5V15H6.5V17ZM17 17H15V15H17V17ZM3 2C2.44772 2 2 2.44772 2 3V10H10V2H3ZM12 10H20V3C20 2.44772 19.5523 2 19 2H12V10Z" fill="black"/>
</svg>
