<svg width="23" height="23" viewBox="0 0 23 23" fill="none" xmlns="http://www.w3.org/2000/svg">
<path d="M11.8672 0.42334C17.8302 0.722781 22.5723 5.60409 22.5723 11.5815L22.5576 12.1558C22.2556 18.0591 17.3245 22.7533 11.2861 22.7534L10.7051 22.7388C4.9342 22.4491 0.306972 17.8687 0.0146484 12.1558L0 11.5815C0 5.41112 5.05305 0.408691 11.2861 0.408691L11.8672 0.42334ZM8.01465 13.3452C8.19052 15.4547 8.67088 17.2807 9.31055 18.6177C10.0821 20.2301 10.8132 20.6555 11.1611 20.7368L11.2861 20.7534C11.5508 20.7531 12.3811 20.4601 13.2627 18.6177C13.9023 17.2807 14.3817 15.4546 14.5576 13.3452H8.01465ZM2.17285 13.3452C2.7795 16.4165 4.93997 18.947 7.82422 20.0923C6.87483 18.4038 6.21098 16.0346 6.00684 13.3452H2.17285ZM16.5645 13.3452C16.3603 16.0349 15.6956 18.4038 14.7461 20.0923C17.6312 18.9473 19.7926 16.4171 20.3994 13.3452H16.5645ZM7.8252 3.06885C4.47415 4.39916 2.10202 7.60069 2.00586 11.3452H5.94336C5.97626 8.03022 6.69928 5.07082 7.8252 3.06885ZM11.2861 2.40869C11.0216 2.40891 10.1923 2.70166 9.31055 4.54443C8.52082 6.19489 7.97317 8.59049 7.94336 11.3452H14.6299C14.6001 8.59073 14.0523 6.19487 13.2627 4.54443C12.3811 2.70204 11.5508 2.40905 11.2861 2.40869ZM14.7471 3.06885C15.8731 5.07082 16.597 8.03031 16.6299 11.3452H20.5664C20.4702 7.60072 18.0981 4.39919 14.7471 3.06885Z" fill="black"/>
</svg>
